# This file uses centimeters as units for non-parametric coordinates.

mtllib Target Poster.mtl
g default
v -0.400000 -0.500000 0.000000
v -0.300000 -0.500000 0.000000
v -0.200000 -0.500000 0.000000
v -0.100000 -0.500000 0.000000
v 0.000000 -0.500000 0.000000
v 0.100000 -0.500000 0.000000
v 0.200000 -0.500000 0.000000
v 0.300000 -0.500000 0.000000
v 0.400000 -0.500000 0.000000
v -0.400000 -0.400000 0.000000
v -0.300000 -0.400000 0.000000
v -0.200000 -0.400000 0.000000
v -0.100000 -0.400000 0.000000
v 0.000000 -0.400000 0.000000
v 0.100000 -0.400000 0.000000
v 0.200000 -0.400000 0.000000
v 0.300000 -0.400283 0.010836
v 0.400000 -0.400283 0.010836
v -0.400000 -0.300000 0.000000
v -0.300000 -0.300000 0.000000
v -0.200000 -0.300000 0.000000
v -0.100000 -0.300283 0.010836
v 0.000000 -0.300283 0.010836
v 0.100000 -0.300283 0.010836
v 0.200000 -0.300283 0.010836
v 0.300000 -0.300283 0.010836
v 0.400000 -0.300000 0.000000
v -0.400000 -0.200000 0.000000
v -0.300000 -0.200198 0.007576
v -0.200000 -0.200000 -0.000000
v -0.100000 -0.200000 0.000000
v 0.000000 -0.200000 0.000000
v 0.100000 -0.200000 0.000000
v 0.200000 -0.200000 0.000000
v 0.300000 -0.200000 0.000000
v 0.400000 -0.200000 0.000000
v -0.400000 -0.100000 0.000000
v -0.300000 -0.100000 0.000000
v -0.200000 -0.100000 0.000000
v -0.100000 -0.100000 0.000000
v 0.000000 -0.100000 0.000000
v 0.100000 -0.100000 0.000000
v 0.200000 -0.100000 0.000000
v 0.300000 -0.100000 0.000000
v 0.400000 -0.100000 0.000000
v -0.400000 0.000000 0.000000
v -0.300000 0.000000 0.000000
v -0.200000 -0.000217 0.008314
v -0.100000 -0.000217 0.008314
v 0.000000 -0.000217 0.008314
v 0.100000 -0.000217 0.008314
v 0.200000 -0.000217 0.008314
v 0.300000 0.000000 0.000000
v 0.400000 0.000000 0.000000
v -0.400000 0.100000 0.000000
v -0.300000 0.100096 -0.003656
v -0.200000 0.099824 0.006712
v -0.100000 0.099783 0.008314
v 0.000000 0.099783 0.008314
v 0.100000 0.099846 0.005885
v 0.200000 0.099783 0.008314
v 0.300000 0.100000 0.000000
v 0.400000 0.100000 0.000000
v -0.400000 0.200000 0.000000
v -0.300000 0.200000 0.000000
v -0.200000 0.199810 0.007254
v -0.100000 0.199783 0.008314
v 0.000000 0.199783 0.008314
v 0.100000 0.199783 0.008314
v 0.200000 0.199783 0.008314
v 0.300000 0.199783 0.008314
v 0.400000 0.200000 0.000000
v -0.400000 0.300000 0.000000
v -0.300000 0.299550 0.017192
v -0.200000 0.300000 0.000000
v -0.100000 0.299863 0.005249
v 0.000000 0.299863 0.005249
v 0.100000 0.300000 0.000000
v 0.200000 0.300000 0.000000
v 0.300000 0.300000 0.000000
v 0.400000 0.300000 0.000000
v -0.400000 0.399677 0.012347
v -0.300000 0.399677 0.012347
v -0.200000 0.399677 0.012347
v -0.100000 0.399677 0.012347
v 0.000000 0.399677 0.012347
v 0.100000 0.399677 0.012347
v 0.200000 0.399761 0.009124
v 0.300000 0.399761 0.009124
v 0.400000 0.399761 0.009124
v -0.400000 0.499723 0.010583
v -0.300000 0.499723 0.010583
v -0.200000 0.499723 0.010583
v -0.100000 0.499723 0.010583
v 0.000000 0.499723 0.010583
v 0.100000 0.499723 0.010583
v 0.200000 0.499723 0.010583
v 0.300000 0.499723 0.010583
v 0.400000 0.499723 0.010583
vt 0.100000 0.000000
vt 0.200000 0.000000
vt 0.300000 0.000000
vt 0.400000 0.000000
vt 0.500000 0.000000
vt 0.600000 0.000000
vt 0.700000 0.000000
vt 0.800000 0.000000
vt 0.900000 0.000000
vt 0.100000 0.100000
vt 0.200000 0.100000
vt 0.300000 0.100000
vt 0.400000 0.100000
vt 0.500000 0.100000
vt 0.600000 0.100000
vt 0.700000 0.100000
vt 0.800000 0.100000
vt 0.900000 0.100000
vt 0.100000 0.200000
vt 0.200000 0.200000
vt 0.300000 0.200000
vt 0.400000 0.200000
vt 0.500000 0.200000
vt 0.600000 0.200000
vt 0.700000 0.200000
vt 0.800000 0.200000
vt 0.900000 0.200000
vt 0.100000 0.300000
vt 0.200000 0.300000
vt 0.300000 0.300000
vt 0.400000 0.300000
vt 0.500000 0.300000
vt 0.600000 0.300000
vt 0.700000 0.300000
vt 0.800000 0.300000
vt 0.900000 0.300000
vt 0.100000 0.400000
vt 0.200000 0.400000
vt 0.300000 0.400000
vt 0.400000 0.400000
vt 0.500000 0.400000
vt 0.600000 0.400000
vt 0.700000 0.400000
vt 0.800000 0.400000
vt 0.900000 0.400000
vt 0.100000 0.500000
vt 0.200000 0.500000
vt 0.300000 0.500000
vt 0.400000 0.500000
vt 0.500000 0.500000
vt 0.600000 0.500000
vt 0.700000 0.500000
vt 0.800000 0.500000
vt 0.900000 0.500000
vt 0.100000 0.600000
vt 0.200000 0.600000
vt 0.300000 0.600000
vt 0.400000 0.600000
vt 0.500000 0.600000
vt 0.600000 0.600000
vt 0.700000 0.600000
vt 0.800000 0.600000
vt 0.900000 0.600000
vt 0.100000 0.700000
vt 0.200000 0.700000
vt 0.300000 0.700000
vt 0.400000 0.700000
vt 0.500000 0.700000
vt 0.600000 0.700000
vt 0.700000 0.700000
vt 0.800000 0.700000
vt 0.900000 0.700000
vt 0.100000 0.800000
vt 0.200000 0.800000
vt 0.300000 0.800000
vt 0.400000 0.800000
vt 0.500000 0.800000
vt 0.600000 0.800000
vt 0.700000 0.800000
vt 0.800000 0.800000
vt 0.900000 0.800000
vt 0.100000 0.900000
vt 0.200000 0.900000
vt 0.300000 0.900000
vt 0.400000 0.900000
vt 0.500000 0.900000
vt 0.600000 0.900000
vt 0.700000 0.900000
vt 0.800000 0.900000
vt 0.900000 0.900000
vt 0.100000 1.000000
vt 0.200000 1.000000
vt 0.300000 1.000000
vt 0.400000 1.000000
vt 0.500000 1.000000
vt 0.600000 1.000000
vt 0.700000 1.000000
vt 0.800000 1.000000
vt 0.900000 1.000000
vn 0.000000 0.000000 1.000000
vn 0.000000 0.000000 1.000000
vn 0.000000 0.000000 1.000000
vn 0.000000 0.000000 1.000000
vn 0.000000 0.000000 1.000000
vn -0.013548 -0.013548 0.999816
vn 0.000000 0.000000 1.000000
vn -0.013547 -0.040642 0.999082
vn 0.000000 0.000000 1.000000
vn 0.000000 -0.054178 0.998531
vn 0.000000 0.000000 1.000000
vn 0.000000 -0.054178 0.998531
vn -0.027090 -0.027090 0.999266
vn -0.027029 -0.054159 0.998167
vn -0.027049 -0.081146 0.996335
vn -0.013472 -0.040617 0.999084
vn 0.000000 -0.108034 0.994147
vn 0.027090 -0.027090 0.999266
vn 0.000000 -0.018945 0.999821
vn -0.018942 -0.018942 0.999641
vn -0.017622 -0.009421 0.999800
vn -0.026980 -0.000048 0.999636
vn 0.000000 0.000000 1.000000
vn 0.000000 -0.000000 1.000000
vn -0.013538 0.013538 0.999817
vn 0.013444 0.040531 0.999088
vn 0.053947 0.053947 0.997085
vn 0.000000 -0.000047 1.000000
vn -0.037851 0.000048 0.999283
vn 0.005391 0.013563 0.999894
vn -0.013519 0.040556 0.999086
vn 0.000000 0.054026 0.998540
vn 0.000000 0.054025 0.998540
vn 0.000000 0.054025 0.998540
vn 0.013519 0.040556 0.999086
vn 0.027052 0.027052 0.999268
vn -0.010390 0.008543 0.999910
vn -0.018923 0.018923 0.999642
vn -0.000924 -0.021717 0.999764
vn -0.000000 -0.041582 0.999135
vn -0.000000 -0.041582 0.999135
vn 0.000000 -0.041582 0.999135
vn 0.010396 -0.031188 0.999460
vn 0.010395 -0.010395 0.999892
vn 0.000000 0.000000 1.000000
vn -0.029212 0.000785 0.999573
vn 0.009136 0.009136 0.999917
vn -0.035702 -0.022609 0.999107
vn -0.002004 -0.039579 0.999215
vn 0.003037 -0.038546 0.999252
vn 0.000000 -0.035510 0.999369
vn 0.028112 -0.028141 0.999209
vn 0.031185 -0.010376 0.999460
vn 0.000000 0.000000 1.000000
vn -0.036171 0.001298 0.999345
vn 0.018275 0.000011 0.999833
vn -0.050662 0.002671 0.998712
vn -0.005332 0.001326 0.999985
vn 0.006073 0.000003 0.999982
vn 0.000000 -0.000005 1.000000
vn 0.025118 -0.010375 0.999631
vn 0.041536 -0.020767 0.998921
vn 0.020789 -0.020789 0.999568
vn -0.026654 -0.043708 0.998689
vn -0.033821 -0.052089 0.998070
vn -0.020916 -0.005391 0.999767
vn -0.011205 0.019867 0.999740
vn 0.009590 0.018840 0.999777
vn 0.006553 0.028904 0.999561
vn 0.007348 0.028110 0.999578
vn 0.031131 0.010379 0.999461
vn 0.041536 0.000057 0.999137
vn -0.009032 -0.052608 0.998574
vn -0.085617 -0.061584 0.994423
vn 0.019290 -0.033175 0.999263
vn -0.014463 -0.021488 0.999664
vn 0.013136 -0.020161 0.999711
vn 0.017137 -0.016138 0.999723
vn 0.004029 -0.008080 0.999959
vn 0.010395 -0.014446 0.999842
vn 0.020789 -0.024839 0.999475
vn -0.000000 -0.009940 0.999951
vn -0.042948 -0.009931 0.999028
vn 0.014932 -0.024872 0.999579
vn -0.006563 -0.033244 0.999426
vn 0.006563 -0.033244 0.999426
vn 0.014617 -0.046338 0.998819
vn 0.008060 -0.052929 0.998566
vn 0.000000 -0.052916 0.998599
vn 0.000000 -0.052916 0.998599
vn 0.000000 0.017628 0.999845
vn 0.000000 0.017628 0.999845
vn 0.000000 0.017628 0.999845
vn 0.000000 0.017628 0.999845
vn 0.000000 0.017628 0.999845
vn 0.008054 0.009579 0.999922
vn 0.008058 -0.006533 0.999946
vn 0.000000 -0.014593 0.999894
vn 0.000000 -0.014593 0.999894
s 1
g pPlane1
usemtl blinn1SG
f 1/1/1 2/2/2 11/11/3 10/10/4
f 2/2/2 3/3/5 12/12/6 11/11/3
f 3/3/5 4/4/7 13/13/8 12/12/6
f 4/4/7 5/5/9 14/14/10 13/13/8
f 5/5/9 6/6/11 15/15/12 14/14/10
f 6/6/11 7/7/13 16/16/14 15/15/12
f 7/7/13 8/8/15 17/17/16 16/16/14
f 8/8/15 9/9/17 18/18/18 17/17/16
f 10/10/4 11/11/3 20/20/19 19/19/20
f 11/11/3 12/12/6 21/21/21 20/20/19
f 12/12/6 13/13/8 22/22/22 21/21/21
f 13/13/8 14/14/10 23/23/23 22/22/22
f 14/14/10 15/15/12 24/24/24 23/23/23
f 15/15/12 16/16/14 25/25/25 24/24/24
f 16/16/14 17/17/16 26/26/26 25/25/25
f 17/17/16 18/18/18 27/27/27 26/26/26
f 19/19/20 20/20/19 29/29/28 28/28/29
f 20/20/19 21/21/21 30/30/30 29/29/28
f 21/21/21 22/22/22 31/31/31 30/30/30
f 22/22/22 23/23/23 32/32/32 31/31/31
f 23/23/23 24/24/24 33/33/33 32/32/32
f 24/24/24 25/25/25 34/34/34 33/33/33
f 25/25/25 26/26/26 35/35/35 34/34/34
f 26/26/26 27/27/27 36/36/36 35/35/35
f 28/28/29 29/29/28 38/38/37 37/37/38
f 29/29/28 30/30/30 39/39/39 38/38/37
f 30/30/30 31/31/31 40/40/40 39/39/39
f 31/31/31 32/32/32 41/41/41 40/40/40
f 32/32/32 33/33/33 42/42/42 41/41/41
f 33/33/33 34/34/34 43/43/43 42/42/42
f 34/34/34 35/35/35 44/44/44 43/43/43
f 35/35/35 36/36/36 45/45/45 44/44/44
f 37/37/38 38/38/37 47/47/46 46/46/47
f 38/38/37 39/39/39 48/48/48 47/47/46
f 39/39/39 40/40/40 49/49/49 48/48/48
f 40/40/40 41/41/41 50/50/50 49/49/49
f 41/41/41 42/42/42 51/51/51 50/50/50
f 42/42/42 43/43/43 52/52/52 51/51/51
f 43/43/43 44/44/44 53/53/53 52/52/52
f 44/44/44 45/45/45 54/54/54 53/53/53
f 46/46/47 47/47/46 56/56/55 55/55/56
f 47/47/46 48/48/48 57/57/57 56/56/55
f 48/48/48 49/49/49 58/58/58 57/57/57
f 49/49/49 50/50/50 59/59/59 58/58/58
f 50/50/50 51/51/51 60/60/60 59/59/59
f 51/51/51 52/52/52 61/61/61 60/60/60
f 52/52/52 53/53/53 62/62/62 61/61/61
f 53/53/53 54/54/54 63/63/63 62/62/62
f 55/55/56 56/56/55 65/65/64 64/64/65
f 56/56/55 57/57/57 66/66/66 65/65/64
f 57/57/57 58/58/58 67/67/67 66/66/66
f 58/58/58 59/59/59 68/68/68 67/67/67
f 59/59/59 60/60/60 69/69/69 68/68/68
f 60/60/60 61/61/61 70/70/70 69/69/69
f 61/61/61 62/62/62 71/71/71 70/70/70
f 62/62/62 63/63/63 72/72/72 71/71/71
f 64/64/65 65/65/64 74/74/73 73/73/74
f 65/65/64 66/66/66 75/75/75 74/74/73
f 66/66/66 67/67/67 76/76/76 75/75/75
f 67/67/67 68/68/68 77/77/77 76/76/76
f 68/68/68 69/69/69 78/78/78 77/77/77
f 69/69/69 70/70/70 79/79/79 78/78/78
f 70/70/70 71/71/71 80/80/80 79/79/79
f 71/71/71 72/72/72 81/81/81 80/80/80
f 73/73/74 74/74/73 83/83/82 82/82/83
f 74/74/73 75/75/75 84/84/84 83/83/82
f 75/75/75 76/76/76 85/85/85 84/84/84
f 76/76/76 77/77/77 86/86/86 85/85/85
f 77/77/77 78/78/78 87/87/87 86/86/86
f 78/78/78 79/79/79 88/88/88 87/87/87
f 79/79/79 80/80/80 89/89/89 88/88/88
f 80/80/80 81/81/81 90/90/90 89/89/89
f 82/82/83 83/83/82 92/92/91 91/91/92
f 83/83/82 84/84/84 93/93/93 92/92/91
f 84/84/84 85/85/85 94/94/94 93/93/93
f 85/85/85 86/86/86 95/95/95 94/94/94
f 86/86/86 87/87/87 96/96/96 95/95/95
f 87/87/87 88/88/88 97/97/97 96/96/96
f 88/88/88 89/89/89 98/98/98 97/97/97
f 89/89/89 90/90/90 99/99/99 98/98/98
